# xmcd
#
# Track frame offsets: 
#        183
#        14185
#        27108
#        40408
#        53130
#        63155
#        75075
#        85043
#        95963
#        105980
#        119883
#        131543
#        141910
#        153178
#        163233
#        175670
#        186553
#        198203
#        208098
#        219775
#        229830
#
# Disc length: 3214 seconds
#
# Revision: 1
# Processed by: cddbd v1.5.2PL0 Copyright (c) Steve Scherf et al.
# Submitted via: ExactAudioCopy v0.95a5
#
DISCID=220c8c15
DTITLE=Solomon Burke - You Can Run, But You Can't Hide
DYEAR=1900
DGENRE=
TTITLE0=01 - To Thee
TTITLE1=02 - Why Do Me That Way
TTITLE2=03 - This Is It
TTITLE3=04 - My Hearth Is A Chapel
TTITLE4=05 - A Picture Of You
TTITLE5=06 - You Can Run, But You Can't Hide
TTITLE6=07 - Friendship Ring
TTITLE7=08 - I'm Not Afraid
TTITLE8=09 - Don't Cry
TTITLE9=10 - Christmas Presents
TTITLE10=11 - I'm In Love
TTITLE11=12 - Leave My Kitten Alone
TTITLE12=13 - No Man Walks Alone
TTITLE13=14 - I'm All Alone
TTITLE14=15 - I Need You Tonight
TTITLE15=16 - Walking In A Dream
TTITLE16=17 - You Are My One Love
TTITLE17=18 - For You And You Alone
TTITLE18=19 - This Little Ring
TTITLE19=20 - They Always Say
TTITLE20=21 - Mama, Mama Dear
EXTD=
EXTT0=
EXTT1=
EXTT2=
EXTT3=
EXTT4=
EXTT5=
EXTT6=
EXTT7=
EXTT8=
EXTT9=
EXTT10=
EXTT11=
EXTT12=
EXTT13=
EXTT14=
EXTT15=
EXTT16=
EXTT17=
EXTT18=
EXTT19=
EXTT20=
PLAYORDER=
